# xmcd
#
# Track frame offsets:
#	150
#	18840
#	48087
#	76300
#
# Disc length: 1275 seconds
#
# Revision: 0
# Processed by: cddbd v1.5.1PL2 Copyright (c) Steve Scherf et al.
# Submitted via: dBpowerAMP V4.0
#
DISCID=1e04f904
DTITLE=Mathew Marsden - The Heart's Lone Desire
DYEAR=1998
DGENRE=Pop
TTITLE0=The Heart's Lone Desire
TTITLE1=The Heart's Lone Desire(Klub Mix)
TTITLE2=The Heart's Lone Desire(Bunker Dub)
TTITLE3=The Heart's Lone Desire(Metropolitan Mix)
EXTD=
EXTT0=
EXTT1=
EXTT2=
EXTT3=
PLAYORDER=
